<?xml version="1.0" encoding="utf-8"?>
<!-- Generator: Adobe Illustrator 16.0.0, SVG Export Plug-In . SVG Version: 6.00 Build 0)  -->
<!DOCTYPE svg PUBLIC "-//W3C//DTD SVG 1.1//EN" "http://www.w3.org/Graphics/SVG/1.1/DTD/svg11.dtd">
<svg version="1.1" id="Layer_1" xmlns="http://www.w3.org/2000/svg" xmlns:xlink="http://www.w3.org/1999/xlink" x="0px" y="0px"
	 width="500px" height="500px" viewBox="0 0 500 500" enable-background="new 0 0 500 500" xml:space="preserve">
<path fill-rule="evenodd" clip-rule="evenodd" fill="#1C75BC" d="M233.724,0.304c10.199,0,20.399,0,30.599,0
	c4.948,0.431,9.898,0.839,14.844,1.296c17.333,1.602,34.504,4.268,50.554,11.256c7.681,3.344,15.282,7.431,21.919,12.494
	c13.983,10.668,20.936,24.804,20.521,43.016c-0.664,29.171-0.16,58.368-0.191,87.554c-0.009,9.33,0.335,18.693-0.316,27.982
	c-1.72,24.529-13.511,42.314-36.455,52.087c-10.296,4.384-21.104,6.488-32.297,6.495c-40.578,0.023-81.158-0.156-121.734,0.105
	c-19.75,0.127-37.449,6.004-50.693,21.607c-10.564,12.447-15.809,27.285-16.408,43.323c-0.766,20.479-0.324,41.002-0.402,61.507
	c-0.004,1.369,0,2.738,0,4.193c-15.778,0-31.067,0.031-46.356-0.04c-1.928-0.01-3.875-0.466-5.777-0.882
	c-17.285-3.778-30.068-13.959-39.697-28.377c-12.17-18.225-17.184-38.878-19.85-60.255C1.165,277.124,0.651,270.541,0,263.977
	c0-9.332,0-18.663,0-27.995c0.862-7.73,1.497-15.496,2.631-23.188c2.632-17.849,7.535-34.994,17.645-50.185
	c13.778-20.7,32.917-32.56,58.105-32.665c56.415-0.236,112.833-0.028,169.249-0.002c1.155,0.001,2.31,0,3.549,0
	c0-5.867,0-11.334,0-17.17c-40.481,0-80.768,0-121.404,0c0-1.646,0.002-2.924-0.001-4.203c-0.047-17.576,0.026-35.154-0.196-52.727
	c-0.1-7.916,2.108-14.965,6.574-21.359c6.339-9.08,15.16-15.088,25.041-19.641c17.979-8.283,37.177-11.463,56.687-13.241
	C223.155,1.121,228.441,0.734,233.724,0.304z M203.898,60.622c-0.017-12.144-9.835-21.925-21.929-21.847
	c-11.91,0.078-21.693,9.87-21.76,21.779c-0.067,12.088,9.721,21.907,21.854,21.921C194.276,82.488,203.915,72.841,203.898,60.622z"
	/>
<path fill-rule="evenodd" clip-rule="evenodd" fill="#FBC44A" d="M500,213.847c0,23.654,0,47.309,0,70.963
	c-0.225,0.813-0.528,1.613-0.663,2.441c-2.713,16.813-7.124,33.078-16.211,47.685c-13.747,22.099-33.325,34.914-59.733,35.041
	c-56.417,0.271-112.836,0.032-169.254,0.001c-1.139,0-2.276,0-3.335,0c0,5.994,0,11.461,0,17.164c40.471,0,80.686,0,121.312,0
	c0,1.518-0.004,2.793,0,4.066c0.054,17.469-0.043,34.938,0.227,52.403c0.14,9.003-2.617,16.82-8.058,23.808
	c-5.155,6.621-11.735,11.53-19.103,15.409c-18.996,9.999-39.684,13.521-60.712,15.435c-20.456,1.859-40.955,1.938-61.425,0.065
	c-19.407-1.776-38.438-5.196-56.282-13.524c-8.524-3.978-16.352-8.978-22.873-15.815c-10.172-10.664-14.408-23.216-14.157-38.127
	c0.564-33.625,0.165-67.266,0.192-100.899c0.003-4.881-0.082-9.784,0.334-14.638c1.914-22.404,12.074-39.499,32.647-49.648
	c11.269-5.56,23.257-8.211,35.804-8.222c40.578-0.038,81.157,0.1,121.733-0.103c16.094-0.08,31.229-3.932,43.851-14.579
	c15.667-13.216,22.625-30.942,23.549-50.743c0.954-20.463,0.326-41,0.391-61.505c0.004-1.249,0-2.498,0-3.917
	c13.43,0,26.339,0.224,39.238-0.053c19.332-0.414,34.603,7.686,46.926,21.931c11.485,13.276,17.695,29.165,21.667,46.017
	C497.573,200.903,498.699,207.395,500,213.847z M298.018,439.184c-0.019,12.164,9.745,21.987,21.824,21.958
	c12.021-0.027,21.939-10.013,21.869-22.02c-0.069-11.979-9.74-21.618-21.765-21.694C307.75,417.35,298.034,426.988,298.018,439.184z
	"/>
</svg>
